<?xml version="1.0" standalone="no"?>
<!DOCTYPE svg PUBLIC "-//W3C//DTD SVG 1.1//EN" "http://www.w3.org/Graphics/SVG/1.1/DTD/svg11.dtd">
<svg version="1.1" id="Echo" xmlns="http://www.w3.org/2000/svg" xmlns:xlink="http://www.w3.org/1999/xlink" x="0px" y="0px"
	 viewBox="0 0 600 600" enable-background="new 0 0 600 600" xml:space="preserve">
<path opacity="0.8" fill="#000000" d="M561.6,216.1c-0.3,0.2-0.7,0.4-0.8,0.7c-4.5,14.7-15,24.1-26.9,32.1
	c-18.6,12.6-39.2,20.3-60.4,26.8c-17,5.2-34.2,9-51.6,12.2c-16.6,3.1-33.4,4.9-50.1,6.9c-5.4,0.7-10.9,1.6-16.2,1.8
	c-5.7,0.2-11.4,0.9-17.1,0.8c-9.6-0.2-19.2,0.5-28.8,0.7c-25.2,0.4-50.3-0.6-75.4-2.7c-15.9-1.3-31.7-3.4-47.5-6
	c-34.5-5.8-68.5-13.8-100.4-28.9c-13.2-6.2-25.6-13.7-35.8-24.5c-5.3-5.6-9.4-11.9-11.4-19.4c-0.1-0.4-0.5-0.8-0.8-1.1
	c0-3.8,0-47.6,0-51.5c2-6.4,4.5-12.6,8.8-17.9c10.3-12.8,23.9-21,38.2-28c24.3-11.8,50.1-19.1,76.3-24.7
	c32.2-6.7,64.8-10.9,97.7-12.3c6.1-0.3,12.2,0,18.2-1.2c19.2,0,38.4,0,57.6,0c0.9,1.9,2.6,1.2,4,1.2c15.4,0.4,30.8,1.9,46.1,3.6
	c33.8,3.9,67.2,10.2,99.5,21.2c19.5,6.7,38.5,14.6,55.1,27.4c8.1,6.3,15.1,13.6,19.4,23.3c0.9,2.2,2.4,8.5,2.4,16.5
	C561.6,177.4,561.6,211.8,561.6,216.1z M299.9,255.3c53.9-0.1,107.2-4.9,159.5-18.8c21.5-5.7,42.5-13.1,62-24.5
	c9-5.3,17.5-11.3,23.6-20.2c5.8-8.5,5.8-17,0.2-25.6c-1.8-2.8-3.9-5.2-6.3-7.5c-6.4-6.2-13.7-11-21.4-15.2
	c-20.2-11.1-41.9-18.1-64-23.8c-33-8.5-66.6-12.8-100.5-15.4c-30-2.3-60-2.5-90-0.9c-7.6,0.4-15.3,0.8-22.9,1.9
	c-4.2,0.6-8.8,0.9-13.3,0.9c-7,0.1-14,1.4-21.1,2.3c-13.9,1.7-27.6,4.2-41.3,7.1c-21.1,4.4-41.9,10.2-61.9,18.5
	c-14.5,6-28.5,12.9-40.2,23.8c-15.4,14.4-15.3,28,0.3,42.4c8.3,7.7,17.9,13.3,28,18.1c23.5,11.3,48.2,18.4,73.5,23.8
	C208.8,251.6,254.2,255.3,299.9,255.3z"/>
<path fill="#000000" d="M38.4,426.1c0-46.4,0-92.8,0-139.1c1-1.1,1.3,0.1,1.8,0.6c2.2,2.3,4.2,4.7,6.5,6.9c11.8,11,25.6,18.8,40.1,25
	c7.6,3.3,15,7.2,23.2,9.2c8.6,2.1,16.8,5.9,25.5,7.8c11.8,2.6,23.5,6.1,35.3,8.3c8.5,1.6,17.1,3.1,25.6,4.1c9,1.1,18,2.3,27,3.1
	c38.5,3.6,77.1,4.5,115.7,2.8c3.3-0.2,6.8,0.6,10,0c11.3-2.2,22.8-1.8,34.2-3.4c3.3-0.5,6.8-0.5,10.1-0.9c6.1-0.6,12-2.2,18.1-3.2
	c13.5-2.2,27.2-4.1,40.4-7.8c7.7-2.1,15.5-3.9,23.1-6.1c8.1-2.3,16.2-4.6,24-7.6c4.8-1.9,9.5-4,14.3-6.2c17.4-8,34.2-17.1,46.9-32.3
	c0.4-0.4,0.8-1.6,1.5-0.3c0,46.4,0,92.8,0,139.1c-1.9,5.3-3.9,10.7-7,15.4c-4.2,6.4-9.8,11.5-15.9,16
	c-17.2,12.9-36.8,20.5-56.7,27.6c-9.8,3.4-19.9,5.3-29.8,8.3c-13.5,4.1-27.5,5.9-41.3,8.2c-13.7,2.3-27.6,4.5-41.5,5.4
	c-11.1,0.7-22.2,2.2-33.3,2.3c-1.1,0-2.5-0.7-3.3,0.9c-4.2,0-8.5,0-12.7,0c-4.2-1.3-8.5,0.1-12.7,0c-13.7,0-27.4,0-41.1,0
	c-0.7-1.6-2.2-0.9-3.3-1c-11.9-0.8-23.8-1.2-35.7-2.6c-14.4-1.7-28.8-3.2-43.1-6.1c-8.4-1.7-17.1-2.5-25.5-4.5
	c-15.3-3.6-30.4-7.7-45.3-12.8c-20.1-6.8-39.2-15.2-55.9-28.7c-8-6.5-15.1-14-17.7-24.7C39.6,428.7,40.5,426.6,38.4,426.1z
	 M38.9,268.3c4.9,16.7,17.8,25.9,31.5,34c8.8,5.3,18.3,9.2,27.8,13.1c17.2,7.1,34.9,11.9,52.8,16.1c15.5,3.6,31.1,6.9,46.9,8.9
	c42.5,5.4,85.2,8,128.1,6.3c19.8-0.8,39.5-2,59.2-4.5c12.8-1.6,25.6-3,38.2-5.5c21.6-4.2,43.1-8.5,63.9-16
	c10.3-3.7,20.8-7,30.6-12.2c10.4-5.5,20.7-10.9,29.3-19.2c6.2-5.9,12.1-12.2,13.2-21.4c0-0.3,0.7-0.6,1.1-0.9c0-27,0-24,0-51
	c-0.3,0.2-0.7,0.4-0.8,0.7c-4.5,14.7-15,24.1-26.9,32.1c-18.6,12.6-39.2,20.3-60.4,26.8c-17,5.2-34.2,9-51.6,12.2
	c-16.6,3.1-33.4,4.9-50.1,6.9c-5.4,0.7-10.9,1.6-16.2,1.8c-5.7,0.2-11.4,0.9-17.1,0.8c-9.6-0.2-19.2,0.5-28.8,0.7
	c-25.2,0.4-50.3-0.6-75.4-2.7c-15.9-1.3-31.7-3.4-47.5-6c-34.5-5.8-68.5-13.8-100.4-28.9c-13.2-6.2-25.6-13.7-35.8-24.5
	c-5.3-5.6-9.4-11.9-11.4-19.4c-0.1-0.4-0.5-0.8-0.8-1.1c0,27.5,0,25,0,52.6C38.6,268,38.9,268.1,38.9,268.3z M459.4,236.5
	c21.5-5.7,42.5-13.1,62-24.5c9-5.3,17.5-11.3,23.6-20.2c5.8-8.5,5.8-17,0.2-25.6c-1.8-2.8-3.9-5.2-6.3-7.5
	c-6.4-6.2-13.7-11-21.4-15.2c-20.2-11.1-41.9-18.1-64-23.8c-33-8.5-66.6-12.8-100.5-15.4c-30-2.3-60-2.5-90-0.9
	c-7.6,0.4-15.3,0.8-22.9,1.9c-4.2,0.6-8.8,0.9-13.3,0.9c-7,0.1-14,1.4-21.1,2.3c-13.9,1.7-27.6,4.2-41.3,7.1
	c-21.1,4.4-41.9,10.2-61.9,18.5c-14.5,6-28.5,12.9-40.2,23.8c-15.4,14.4-15.3,28,0.3,42.4c8.3,7.7,17.9,13.3,28,18.1
	c23.5,11.3,48.2,18.4,73.5,23.8c44.8,9.5,90.2,13.2,135.9,13.2C353.7,255.2,407.1,250.4,459.4,236.5z M197.8,162.1
	c5.2,1.5,10.1,4.6,13.7,9.2c3.7,4.7,3.9,10.4,0,15c-3.3,3.9-7.3,6.9-12.3,8.5c-6.4,2-12.7,4.3-19.3,4.9c-8.7,0.9-17.5,0.2-26.2-1.1
	c-5.8-0.8-11.3-2.5-16.7-4.9c-1.8-0.8-3.6-1.8-5.2-2.9c-10.2-7-10.2-16.8,0-24c7.5-5.2,16.1-6.8,24.8-8.2c4.3-0.7,8.7-1.1,12.9-0.7
	C179.2,157.5,188.7,159.4,197.8,162.1z M409.1,197.5c-6.1-1.7-12.6-3.1-17.7-8c-7.2-6.9-7.6-14.6,0-21.1c4.1-3.5,8.9-5.5,14-7
	c18.1-5.4,36.1-4.7,54,1c4.4,1.4,8.5,3.6,12,6.9c5.9,5.5,6,13.1,0.3,18.8c-3.4,3.5-7.6,5.5-12.1,7.2c-8.7,3.3-17.6,5.3-26.2,4.5
	C424.6,200.3,416.6,199.5,409.1,197.5z M97.5,156.9c-0.1,1.9-1.2,3.8-3.2,3.8c-2.3,0-3.4-2.3-3.4-4.1c-0.1-1.8,1.8-2.7,3.6-2.8
	C96.4,153.9,97.6,155,97.5,156.9z M473.7,143c0,2.2-1.7,3.7-3.5,3.8c-1.6,0.1-2.7-1.6-2.7-3.4c-0.1-2.2,1.2-3.2,3.1-3.6
	C472.5,140,473.8,141.1,473.7,143z M84,160.6c1.7,0,3.2,1,3.1,3c-0.1,2-1.4,3.8-3.2,3.9c-2.3,0.2-2.9-1.9-3-4.1
	C80.8,161.3,82.5,160.7,84,160.6z M126,214.5c0.1-1.9,1.4-3,3.2-3c1.9,0,3,1.4,3,3.2c0,2.1-1.9,2.7-3.2,3.8
	C127.8,217.3,125.8,216.7,126,214.5z M459,143.4c-1.6,0-3.4-1.6-3.3-3.8c0.1-1.8,1.3-3.1,3.1-3.1c1.8,0,2.8,1.3,3.2,2.9
	C461.9,141.7,460.2,143.4,459,143.4z M88,207.1c0,2-1.8,3.8-3.1,3.6c-1.4-0.1-3.4-1.6-3.1-3.9c0.2-1.9,1.5-2.8,3.2-3
	C86.9,204.1,88,205.3,88,207.1z M421.5,125.3c-1.2,0.1-3-1.7-3-3.7c0-1.9,1.2-3.2,3-3.2c1.8-0.1,3,1.1,3.2,3
	C424.7,123.6,423.1,125.2,421.5,125.3z M192.2,130.1c-0.1,1.8-0.7,3.8-3,3.9c-2.2,0.1-2.9-1.7-3.1-3.4c-0.2-2,0.9-3.3,2.9-3.5
	C191,127.2,192.2,128.3,192.2,130.1z M154,235.3c-1.2,0.1-2.9-1.7-2.9-3.7c0-2,1.1-3.2,2.9-3.3c1.8-0.1,2.9,1.2,3.3,2.9
	C157.1,233.6,155.5,235.2,154,235.3z M446.4,140.6c-1.1,0-2.9-1.8-2.7-3.9c0.1-1.9,1.5-3.1,3.2-3.1c1.7,0,2.9,1.3,3,3.2
	C449.6,139,448,140.6,446.4,140.6z M229.4,115.4c0,2.1-1.9,3.6-3.5,3.6c-1.1,0-3.1-1.7-2.8-3.8c0.2-1.8,1.4-2.8,3.2-3
	C228.2,112.4,229.4,113.6,229.4,115.4z M177.1,135.3c-2,0-3.3-1.3-3.2-3.3c0.1-1.9,1.4-3.1,3.2-3c1.8,0,2.8,1.3,3.2,3.2
	C179.9,133.9,178.9,135.3,177.1,135.3z M505.2,159.9c-2.1,0.2-3.6-1.7-3.6-3.1c-0.1-1.4,1.4-3.3,3.4-3.3c1.9,0,2.9,1.3,3.2,3.1
	C508,158.4,507.1,159.7,505.2,159.9z M397.7,132.2c-1.2-0.1-2.8-1.9-2.7-3.9c0.1-2,1.5-3,3.2-3c1.7,0,2.9,1.3,3,3.3
	C400.9,130.6,399.4,132.3,397.7,132.2z M241.5,114.4c-0.2,1.8-0.9,3.9-3.4,3.6c-2.1-0.2-2.6-2.1-2.7-3.8c-0.1-1.9,1.3-2.9,3.2-3
	C240.4,111.4,241.8,112.5,241.5,114.4z M445.5,129.7c-1.4-0.2-3.4-1.8-3.3-3.7c0.2-1.7,1.7-3.2,3.6-3.1c1.8,0.1,2.9,1.4,2.9,2.3
	C448.8,128.5,446.6,129.8,445.5,129.7z M133.3,225.4c0,2.1-1.3,3.5-3.2,3.2c-1.5-0.2-3.4-0.7-3.5-3c-0.1-2.7,2.4-2.3,3.3-3.4
	C132.1,222.6,133.3,223.5,133.3,225.4z M202.4,243c-2-0.1-3.2-1.4-3.1-3.5c0.1-1.9,1.4-3,3.3-2.8c1.8,0.1,2.7,1.5,3,3.1
	C205.2,241.7,204.2,243,202.4,243z M95.5,148.3c-1.8,0.1-3.1-1.1-3.2-3c-0.1-2.1,1.2-3.4,3.1-3.4c1.8,0,2.8,1.3,3.1,3.1
	C98.3,147,97.2,148.2,95.5,148.3z M76.3,188.7c-1.6,0-3.4-1.7-3.3-3.8c0-1.8,1.3-3.1,3.2-3.1c1.8,0,2.8,1.4,3.2,3.2
	C79,186.8,77.6,188.7,76.3,188.7z M156.1,220.6c0.2,2.3-1.8,3.6-3.3,3.9c-0.9,0.2-2.9-1.7-2.9-3.7c0-1.9,1.3-2.9,3-3.4
	C154.6,217.9,155.9,218.8,156.1,220.6z M161.9,223.5c-0.1-2.1,1.3-3.3,3.3-3.3c2.3,0.1,3,1.9,3.1,4c0.1,2.4-2.1,1.6-2.9,2.4
	C163.2,226.4,162,225.4,161.9,223.5z M74.1,161.4c-1.9,0.1-2.6-1.2-2.7-2.8c-0.2-2.1,1-3.4,3-3.6c2.2-0.2,2.9,1.5,3.5,3.7
	C77.1,160,76.1,161.3,74.1,161.4z M433.6,126.8c-1.8,0-3-1.2-2.9-3.2c0-2,1.5-3.6,2.9-3.7c1.6-0.1,3.4,1.1,3.2,3.3
	C436.8,125.6,435.6,126.8,433.6,126.8z M169.1,234c0,2-1.2,3.1-3,3.2c-1.9,0-3.1-1.2-3.1-3.1c0-1.9,1.2-3,3.1-3.2
	C167.9,231.1,169.1,232,169.1,234z M121.2,135.8c0.1,2.1-1.4,3.4-3.2,3.4c-1.7,0-3-1.4-3-3.2c0-1.8,1.3-2.9,3.1-3.3
	C119.8,133,121.1,133.9,121.2,135.8z M472.6,132c0.1,2.1-1.3,3.3-3.2,3.3c-1.8,0-3-1.3-2.9-3.2c0-1.9,1.2-2.9,3.1-3.2
	C471.3,129.1,472.5,130.1,472.6,132z M97.8,200.9c0.1,1.9-1.2,3.2-3,3.2c-1.9,0-3.3-1.2-3.2-3.3c0.1-1.9,1.4-2.8,2.9-3.1
	C96.6,197.9,97.7,199.1,97.8,200.9z M180.8,121.7c-0.1,1.8-1.2,3.2-3.1,3.1c-2,0-3.2-1.3-3.1-3.4c0.1-1.9,1.5-2.7,3.2-3
	C179.6,118.8,180.9,119.8,180.8,121.7z M114.2,210.9c0-1.7,1-3.2,2.9-3.2c2-0.1,3.3,1.2,3.3,3.2c0,1.9-1.3,2.8-3,3.2
	C115.6,213.7,114.3,212.6,114.2,210.9z M142,232.5c-1.8-0.1-3-2-3-4c0.1-1.8,1.4-3,3.3-2.8c1.8,0.2,2.8,1.3,2.9,3.5
	C144.8,230.8,143.5,232.5,142,232.5z M107.2,220.8c-1.9,0.1-3.3-1.1-3.3-3.2c0-1.8,1.1-3.1,3-3.1c1.8,0,2.9,1.1,3.2,2.8
	C110.1,219.5,109,220.7,107.2,220.8z M144,217.7c0.1,1.8-1,3.2-2.8,3.3c-2,0.1-3.3-1.1-3.3-3.2c0-1.9,1.3-2.8,3-3.2
	C142.7,214.9,143.9,215.9,144,217.7z M177.3,228.7c-1.9,0.1-3.1-1.1-3.2-3c-0.1-2,1.2-3.4,3.2-3.4c1.7,0.1,2.9,1.3,3.1,3.1
	C180.2,227.4,179.1,228.6,177.3,228.7z M321.3,123.1c0-1.8,1.1-3.2,2.9-3.3c2-0.1,3.3,1.1,3.4,3.2c0.1,2.1-1.9,2.7-3.1,3.9
	C323.1,125.8,321.3,125.1,321.3,123.1z M216.9,230.5c0.1,1.9-1,3.2-2.8,3.3c-2,0.2-3.3-1.1-3.4-3.2c-0.1-1.9,1.2-2.9,3-3.2
	C215.5,227.7,216.8,228.6,216.9,230.5z M189.7,122.9c-1.9-0.1-3.3-1.4-3.1-3.5c0.2-1.8,1.5-2.9,3.3-2.8c1.9,0.1,2.7,1.5,3,3.2
	C192.6,121.7,191.5,122.9,189.7,122.9z M126.7,132.3c0-2,1.3-3.4,3.4-3.1c1.2,0.2,3,0.3,2.9,2.5c-0.1,2.2-1,3.6-3.3,3.8
	C127.9,135.3,126.7,134.2,126.7,132.3z M443,231.7c0-2.1,1.3-3.4,3.3-3.3c1.8,0,3,1.4,3,3.2c0,2-1.8,2.8-3.1,4
	C445,234.4,443.1,233.7,443,231.7z M165.7,126.9c-1.8,0-3.1-1.1-3.2-3c-0.1-2,1.1-3.2,2.9-3.3c1.9-0.1,2.9,1.1,3.2,3
	C168.5,125.6,167.6,126.9,165.7,126.9z M81.1,194.2c0.1-1.9,1.4-3.2,3.1-3.2c1.9,0,3.3,1.4,3.2,3.5c-0.2,2-1.8,2.9-3.8,3.3
	C82.7,196.8,81.1,196,81.1,194.2z M431.7,134.3c0-1.9,1.1-3.1,2.9-3.2c2.1-0.1,3.3,1.3,3.2,3.3c0,1.8-1.4,2.8-3.3,3.1
	C432.9,137.2,431.7,136.3,431.7,134.3z M226.1,235.7c-2.1-0.1-3-2-3-3.9c0-1.9,1.3-3,3.2-2.9c1.9,0.1,2.8,1.4,3,3.3
	C228.7,233.7,228.1,235.7,226.1,235.7z M177.7,239.8c-1.3-0.1-2.9-1.9-2.6-4c0.3-1.9,1.5-3.1,3.3-2.8c1.7,0.3,2.8,1.5,2.8,3.3
	C181,238.7,179,239.9,177.7,239.8z M63.2,167.6c-0.1-2,1.2-3.4,3.2-3.4c1.8,0,3,1.4,3.1,3.1c0.1,1.9-1.2,2.9-3,3.3
	C64.7,170.4,63.3,169.4,63.2,167.6z M262.8,116c-2.1-0.1-3.6-2-3.5-3.6c0.1-1.3,1.8-2.9,3.9-2.7c1.9,0.2,2.7,1.5,2.9,3.3
	C265.7,114.8,264.7,116.1,262.8,116z M327.3,112.4c-0.1,2-1.6,3.8-3.3,3.8c-1.3,0-2.9-1.8-2.9-3.8c0-2,1.4-2.8,3.1-3.2
	C326,109.4,327.3,110.6,327.3,112.4z M484.3,135.9c0,1.8-1.3,3.1-3.2,3c-1.8-0.1-3.1-1.3-3-3.2c0.1-1.9,1.5-2.8,2.8-3.1
	C483.2,132.8,484.3,134,484.3,135.9z M204.5,128.3c0.2,2.2-1.6,3.8-3.2,4c-1.5,0.2-2.7-1.8-2.9-3.6c-0.2-2,1-2.9,2.8-3.4
	C202.9,125.6,204.3,126.3,204.5,128.3z M389,127.1c-0.1,2.1-1.7,3.8-3.4,3.7c-1.5-0.1-2.7-2-2.6-3.9c0.1-2,1.3-2.8,3.1-3.1
	C387.8,124.2,389.1,125.1,389,127.1z M210.5,126.9c0.1-1.9,1.4-3,3.2-3c1.9,0.1,3,1.4,2.9,3.3c-0.1,1.9-1.3,2.9-3.3,3
	C211.6,129.9,210.4,128.8,210.5,126.9z M235.1,125c-0.1-2.1,1.1-3.3,3.2-3.3c1.9,0,3,1.3,3,3.1c0,1.9-1.1,3-2.9,3.2
	C236.4,127.8,235.2,126.9,235.1,125z M534,178.4c0.2-2.1,1.5-3.2,3.5-3c1.9,0.2,2.7,1.6,2.6,3.5c-0.1,2.3-1.8,3-3.5,4.2
	C535.5,181.6,533.7,180.6,534,178.4z M214.8,244.3c-1.9,0.1-3.1-0.9-3.3-2.8c-0.2-2.1,1-3.4,3-3.5c1.9-0.1,2.8,1.2,3.2,3
	C217.5,242.9,216.7,244.2,214.8,244.3z M226.7,245.6c-1.9-0.1-3-1.3-2.9-3.2c0.1-2,1.3-3.1,3.1-3.1c1.8,0.1,2.9,1.3,3,3.3
	C229.6,244.4,228.5,245.6,226.7,245.6z M95.9,216c-1.9,0.1-3.1-1.1-3.2-3c-0.1-1.9,1-3.2,2.9-3.2c1.9-0.1,2.9,1.2,3.3,2.9
	C98.7,214.6,97.8,215.9,95.9,216z M272.5,245.5c0-2,1.4-3.5,3.3-3.3c1.7,0.1,3.1,1.5,2.9,3.3c-0.1,1.8-1.8,2.8-3.1,4.1
	C274.3,248.3,272.6,247.4,272.5,245.5z M435.7,226.4c-1.9,0.3-3.3-1-3.3-3.2c0-2,1.3-3.3,3-3.1c1.5,0.2,3.9,0.3,3.3,3
	C439.2,226,437,226.2,435.7,226.4z M201.4,226c2-0.1,3.3,1.3,3.4,3.2c0,1.8-1.4,3.1-3.1,3.2c-1.8,0-2.8-1.3-3.2-3.1
	C198.6,227.5,199.7,226.2,201.4,226z M266.7,234c-0.3,1.8-1.7,3.6-4.1,3.3c-1.9-0.2-2.9-1.6-2.7-3.4c0.3-2,1.7-2.9,4.3-2.8
	C265.8,230.9,266.9,232.8,266.7,234z M494.2,154.4c-1.9,0.2-3.1-1-3.3-2.8c-0.2-2.1,1.1-3.4,3-3.5c1.8-0.1,2.8,1.3,3.2,3.1
	C497.1,153.1,496,154.2,494.2,154.4z M108.6,151.7c-0.1,2-1.3,3.1-3.2,2.9c-1.9-0.1-3-1.3-2.9-3.3c0.1-1.9,1.4-2.9,3.2-3.1
	C107.5,148.7,108.7,149.7,108.6,151.7z M454.6,128.9c0.2-1.9,1.3-3.1,3.1-3c2,0.1,3.1,1.4,2.9,3.6c-0.1,2-2.1,2.2-2.8,3.6
	C456.4,131.6,454.4,131.1,454.6,128.9z M275,116.2c-1.4,0-2.9-1.8-2.9-3.7c-0.1-1.9,1.2-3.2,3-3.2c1.7,0,3,1.1,3.2,3.1
	C278.1,114.4,276.7,116.1,275,116.2z M376.1,115.2c0,1.9-1.1,3.1-2.9,3.2c-2,0-3.3-1.2-3.2-3.3c0.1-1.8,1.3-2.9,3.2-3.1
	C374.8,112.3,376,113.3,376.1,115.2z M410.4,133.3c-1.9,0-3-1.3-3.1-3.1c0-2,1.2-3.4,3.2-3.2c2,0.2,3,1.5,2.9,4
	C413.7,133.1,412,133.3,410.4,133.3z M302.8,112c0,1.8-1.2,3.2-3,3.2c-2,0.1-3.3-1.3-3.3-3.3c0-1.8,1.3-2.9,3.1-3.1
	C301.5,109.1,302.7,110.2,302.8,112z M164.9,137.5c-1.6,0-3.2-0.6-3.2-2.8c0-2.1,1.1-3.5,3.1-3.5c1.9-0.1,2.8,1.3,3.1,3
	C167.8,136.3,166.7,137.5,164.9,137.5z M336.9,127.1c-2.3,0.1-3-2-3.2-3.8c-0.2-1.9,1.1-3,3-3c1.9,0,2.9,1.2,3.1,3.1
	C339.6,125.3,339,127.1,336.9,127.1z M489.8,139.7c0.1-1.8,1.2-2.9,2.9-2.9c2,0,3.3,1.2,3.2,3.4c-0.1,2-1.8,2.7-3.1,4.1
	C491.3,142.9,489.6,141.9,489.8,139.7z M300.1,238.3c-1.8-0.1-3.1-1.1-3.1-3c0-2.1,1.3-3.3,3.3-3.3c2.1,0,3.1,1.3,3.4,3.2
	C303.3,237.2,302.1,238.3,300.1,238.3z M361.4,127.9c-1.9,0.1-3-1.1-3-3c0-2.1,1.3-3.4,3.3-3.2c1.7,0.2,3.1,1.3,3.5,3.4
	C364.5,126.8,363.1,127.8,361.4,127.9z M71.8,200c-0.1-1.8,1-3.2,2.9-3.3c1.9-0.1,3.1,1,3.2,2.9c0.1,2-1.1,3-2.4,3.3
	C73.1,203,71.9,201.9,71.8,200z M115.5,221.9c0-1.9,1.2-3.1,3-3.1c2-0.1,3.3,1.2,3.2,3.3c-0.1,1.8-1.3,2.9-3.2,3
	C116.7,224.8,115.5,223.8,115.5,221.9z M63.5,190.9c-0.1-1.9,1-3.2,2.9-3.3c1.9-0.1,3.1,1.1,3.2,3c0.1,2-1.1,2.9-2.5,3.3
	C64.8,193.8,63.6,192.8,63.5,190.9z M397.1,121.7c-1.5-0.1-2.9-1.6-2.9-3.6c0-2.2,1.2-3.3,3.2-3.4c1.9,0,2.7,1.4,3.1,3.3
	C399.9,119.7,399.2,121.8,397.1,121.7z M76,176.2c-2-0.1-3.2-1.4-3.1-3.4c0.1-1.8,1.4-2.9,3.3-2.8c2,0.1,2.7,1.4,3,3.1
	C78.8,174.9,77.9,176.2,76,176.2z M189.4,230.6c-1.8,0-3.1-1-3.1-3c0-1.9,1.1-3.1,3-3.2c1.9-0.1,2.9,1.1,3.1,3
	C192.3,229.4,191.3,230.6,189.4,230.6z M283.7,122.6c0-1.8,1.8-2.8,3.6-3c1.9-0.2,3,1,3.1,3c0.1,2-1.1,2.9-2.8,3.3
	C285.7,125.5,283.8,124.6,283.7,122.6z M290.4,112.1c0.1,2.2-1.5,3.5-3.1,3.5c-1.5,0-3-1.3-3-3.3c0-2,1.2-3,3-3.2
	C289.2,109.1,290.4,110.1,290.4,112.1z M482.5,150c-2,0-3.1-1.3-3.1-3.4c0-2.1,1.4-2.9,3.1-2.9c1.8,0,2.9,1.2,3,3.2
	C485.3,148.7,484.3,150,482.5,150z M116.9,144c1.9-0.2,3.1,1,3.3,2.8c0.2,2-1,3.3-3,3.5c-1.9,0.1-2.7-1.4-3.3-2.8
	C114.1,145.4,115,144.1,116.9,144z M87.6,151.4c0,2.4-1.7,2.5-3.2,2.6c-1.9,0.1-3-1.3-3-3.1c0.1-1.8,1.2-3,3.2-3.1
	C86.6,148.1,87.6,149.2,87.6,151.4z M423.4,228.6c-1.8,0.1-3.1-1.1-3.2-3c0-2.1,1.2-3.2,3.3-3.3c2.1-0.1,2.5,1.5,2.8,3
	C426.2,227.4,425.2,228.6,423.4,228.6z M202.1,121c-1.9,0.1-3.1-1-3.2-2.9c-0.1-1.9,1-3.2,2.9-3.3c1.9-0.1,2.9,1.1,3.3,2.9
	C204.9,119.7,204,120.9,202.1,121z M409.4,122.7c-1.9-0.1-3-1.4-2.9-3.3c0.1-1.9,1.3-3.1,3.2-2.9c1.9,0.1,2.8,1.4,3.1,3.2
	C412.3,121.5,411.3,122.8,409.4,122.7z M250.6,127.1c-1.9,0.1-3.1-1.2-3.2-3c-0.1-1.9,1.1-3.1,3-3.2c1.9-0.1,3,1.1,3.2,3
	C253.4,125.8,252.4,127,250.6,127.1z M296.6,122.5c0.1-1.8,1.3-3.1,3.2-2.9c1.9,0.1,3,1.3,3,3.2c-0.1,1.9-1.4,2.9-3,3.1
	C297.7,125.5,296.5,124.3,296.6,122.5z M493.4,220.7c-2.1,0.1-3.3-1.2-3.3-3.2c0-1.6,0.6-3.1,2.8-3.1c2.1,0.1,3.1,1.2,3.5,3.1
	C496.2,219.3,495.2,220.6,493.4,220.7z M238.4,236c-1.9,0-3.1-1.1-3.1-3.1c0-1.9,1.2-3.1,3-3.2c1.9-0.1,2.8,1.3,3.2,3
	C241.3,234.7,240.4,236,238.4,236z M278.2,123c0,2.1-2,3.7-3.1,3.6c-1.5-0.1-3.3-1.7-3.1-3.9c0.2-1.9,1.4-2.8,3.2-3
	C277,120.2,278.3,121.1,278.2,123z M141.7,132.3c-1.9,0-3.2-1.3-3.1-3.4c0.1-1.9,1.5-3,3.2-2.9c1.8,0.1,2.8,1.4,3,3.2
	C144.5,131,143.4,132.4,141.7,132.3z M108.8,206.5c-0.1,1.9-1.3,3.1-3.2,3c-1.8-0.1-3-1.4-2.9-3.3c0.1-2,1.4-2.8,3.2-3.1
	C107.7,203.5,108.9,204.5,108.8,206.5z M315,112c0.1,2-1.1,3.2-2.9,3.3c-1.8,0.1-3-1.1-3.1-3c-0.1-2,1-3,2.9-3.3
	C313.6,109.2,314.9,110,315,112z M128.8,146.3c-1.9,0-3-1.1-3-3.1c0-1.9,1.2-3.1,3.1-3.1c1.9,0,2.9,1.2,3.1,3.2
	C131.7,145.1,130.8,146.3,128.8,146.3z M360.9,117.4c-2.1,0.1-3.2-1.3-3.1-3.3c0.1-1.8,1.3-3,3.2-2.9c1.9,0,2.8,1.3,3.1,3.1
	C363.7,116.1,362.8,117.4,360.9,117.4z M422.4,135.2c-1.8-0.1-3-1.3-2.9-3.3c0.1-1.9,1.4-3.1,3.2-3c1.8,0.1,2.8,1.4,2.9,3.1
	C425.4,134.2,424.2,135.3,422.4,135.2z M333.4,112.8c0-1.8,1.1-3.1,3-3.1c1.9,0,3.7,1.3,3.6,2.9c0,1.7-1.6,3.3-3.7,3.4
	C334.5,115.7,333.3,114.6,333.4,112.8z M388.8,241.3c0,1.9-1.3,3-3.2,3c-2,0-3-1.4-3-3.2c0-1.8,1.1-3,3.2-3
	C387.7,238.3,388.9,239.4,388.8,241.3z M242,243.3c0.1,1.9-1,3.2-2.9,3.2c-1.9,0.1-3.1-1-3.2-3c-0.1-1.9,1.1-3,2.8-3.3
	C240.7,240.3,241.9,241.4,242,243.3z M514.8,153.7c-1.8-0.1-3.1-1.3-3.1-3.2c0.1-2,1.4-3.3,3.4-3.2c1.8,0.1,2.6,1.6,3,3.3
	C517.6,152.4,516.7,153.8,514.8,153.7z M455,228.4c0.2-1.7,1.5-3.1,3.3-2.9c1.8,0.2,3,1.5,2.9,3.4c-0.1,1.8-1.6,2.9-3.2,4
	C456.7,231.5,454.8,230.5,455,228.4z M398.8,232.8c-1.4-0.2-3.4-1.6-3.1-4c0.3-1.9,1.5-3,3.3-2.9c1.8,0.1,2.8,1.5,2.9,3.1
	C401.8,231.4,399.9,233,398.8,232.8z M411.1,230.5c-1.9,0-3.1-1.3-3.1-3.1c0-1.8,1.2-3.1,3.1-3.1c1.9,0,2.9,1.3,3.1,3.1
	C414,229.3,413,230.5,411.1,230.5z M65.9,178.9c0.1,1.7-0.8,3.1-2.5,3.3c-1.9,0.2-3.4-0.8-3.5-3c-0.1-2,1-3,2.8-3.3
	C64.5,176.1,65.8,177,65.9,178.9z M143.7,139.8c0,1.9-1.1,3.2-2.9,3.2c-1.8,0-3.1-1.1-3.1-3.1c0-2,1.2-2.9,3-3.3
	C142.5,136.9,143.7,137.8,143.7,139.8z M349,247.3c-1.9,0-3.1-1.3-3-3.2c0.1-1.8,1.3-3.1,3.2-3c1.9,0.1,2.8,1.4,3.1,3.2
	C351.9,246.2,350.9,247.4,349,247.3z M251,247.4c-1.9-0.1-3.1-1.4-3-3.2c0.1-1.8,1.2-3.1,3.2-3c1.9,0.1,2.8,1.4,3.1,3.2
	C254,246.3,252.9,247.4,251,247.4z M447.6,224.3c-0.8,0.4-4.4-3.2-3.9-3.9c1-1.4,1.9-3.1,3.9-2.9c1.8,0.2,2.7,1.5,2.9,2.8
	C450.5,222.8,449,223.6,447.6,224.3z M352.1,123.9c0,1.8-1.1,3.1-3,3.2c-2,0-3.3-1.3-3.2-3.3c0.1-1.7,1.3-3,3.4-3
	C351,121,352.1,122.1,352.1,123.9z M348.6,117.2c-2.4,0-3-2.1-3.1-3.9c-0.1-1.9,1.2-3,3.1-2.9c2,0,2.8,1.4,3,3.2
	C351.2,115.3,350.9,117.3,348.6,117.2z M462.6,217.8c0,2-1.4,3.3-3.4,3.2c-1.8-0.1-2.9-1.4-2.8-3.4c0.1-1.9,1.4-2.8,2.9-3.1
	C461.4,214.9,462.7,216,462.6,217.8z M376.7,125.9c0,1.8-1.3,3.1-3.2,3c-1.9-0.1-3.1-1.3-3-3.2c0.1-1.9,1.4-2.9,2.9-3.1
	C375.6,122.8,376.8,124.1,376.7,125.9z M284.6,235c0-2,1.3-3.3,3.4-3.1c1.9,0.1,2.9,1.5,2.8,3.3c-0.1,1.9-1.3,2.9-3.2,3
	C285.8,238,284.5,236.9,284.6,235z M421.9,239.3c-1.9-0.1-3.4-1.9-3.3-3.3c0.1-1.4,1.6-3.3,3.7-3.1c1.8,0.2,2.7,1.6,2.9,3.4
	C424.8,238.1,423.8,239.5,421.9,239.3z M371.2,232.1c-0.1-2,1.1-3.3,3.2-3.2c1.9,0,3,1.3,3,3.1c0,1.8-1.3,2.9-2.9,3.2
	C372.6,234.9,371.3,233.8,371.2,232.1z M327.6,245.2c0.1,1.9-1.1,3.2-2.8,3.3c-1.9,0.1-3.3-1.2-3.3-3.2c0-1.9,1.4-2.8,2.9-3.3
	C326.3,242.4,327.5,243.3,327.6,245.2z M275.4,237.9c-1.9,0-3-1.1-3.1-3.1c0-1.9,1.1-3.2,3-3.2c1.9-0.1,2.9,1.2,3.2,3.1
	C278.3,236.6,277.3,237.9,275.4,237.9z M190.1,241.2c-1.8-0.1-3-1.2-2.9-3.2c0.1-1.9,1.3-3,3.2-3c1.9,0,2.8,1.3,3,3.2
	C193,240.1,192,241.4,190.1,241.2z M533.5,193.7c-2-0.1-3.2-1.5-3-3.5c0.2-1.8,1.4-2.9,3.3-2.8c2,0.1,2.6,1.6,3,3.1
	C536.2,192.4,535.4,193.8,533.5,193.7z M106.7,143.3c-1.9,0.1-3.1-1-3.2-3c-0.1-1.9,1-3.1,2.9-3.3c2-0.2,2.9,1.1,3.3,2.9
	C109.5,141.9,108.7,143.3,106.7,143.3z M504.6,215.9c-1.9,0.1-3.1-1.1-3.2-3c-0.1-1.9,1.1-3.1,3-3.2c1.9-0.1,2.9,1.1,3.3,3
	C507.4,214.4,506.5,215.8,504.6,215.9z M265.8,123.3c0,1.9-1,3.2-2.9,3.2c-1.9,0-3.1-1.1-3.1-3c-0.1-1.9,1.1-3,3-3.2
	C264.6,120.3,265.7,121.3,265.8,123.3z M466.9,225.6c0-2,1.3-3.3,3.3-3.3c1.8,0.1,3,1.4,2.9,3.3c0,1.9-1.3,2.9-3.1,3.2
	C468.2,228.4,466.9,227.5,466.9,225.6z M386.6,233.8c-1.9,0-3-1.2-3-3.2c0-2,1.1-3.1,3-3.1c1.8,0,2.9,1.2,3.1,3.1
	C389.5,232.6,388.5,233.8,386.6,233.8z M152.8,140.1c-1.9,0-3-1.2-3-3.1c0-2,1.2-3.1,3-3.1c1.8,0,2.9,1.2,3.1,3.2
	C155.6,138.9,154.7,140.1,152.8,140.1z M522.3,199.7c0-1.8,1.2-3.1,3-3.1c2,0,3.3,1.3,3.2,3.3c-0.1,1.8-1.4,2.8-3,3
	C523.4,202.6,522.2,201.5,522.3,199.7z M339.9,244.9c0,1.9-1.2,3-3.1,3c-1.9,0-3-1.3-3-3.1c0-1.9,1.3-2.9,3.1-3.1
	C338.8,242,339.9,243,339.9,244.9z M515.3,210c-1.9,0-3.1-1.2-3-3.1c0-1.9,1.1-3.1,3-3.1c1.9,0,2.8,1.3,3.1,3
	C518.2,208.8,517.2,210,515.3,210z M309,122.8c-0.1-1.9,1.1-3.1,3-3.2c1.9-0.1,3.1,1.1,3.1,3c0.1,2-1.1,2.9-2.7,3.3
	C310.3,125.7,309.1,124.7,309,122.8z M434.2,237.1c-1.8,0-3.1-1.2-3.1-3.1c0-2,1.2-3.4,3.3-3.2c1.8,0.1,2.8,1.4,3,3.2
	C437.1,235.9,436,237.1,434.2,237.1z M309.3,245.6c0-1.9,1.2-3.1,3.1-3.1c1.9,0,3.1,1.2,3.1,3.1c0,1.9-1.2,3-3.1,3.2
	C310.5,248.6,309.3,247.5,309.3,245.6z M253.8,233.5c0.1,2-1,3.2-2.9,3.3c-1.8,0.1-3.1-1-3.2-2.9c-0.1-1.9,1.1-3,2.9-3.4
	C252.4,230.7,253.7,231.5,253.8,233.5z M536.3,166.7c0,1.9-1,3.2-2.9,3.2c-1.9,0.1-3-1.1-3.1-3c-0.1-1.9,1.1-3,3-3.3
	C535,163.8,536.3,164.8,536.3,166.7z M362.1,236c-1.9,0-3.1-1.1-3-3.1c0-1.9,1.2-3.1,3.1-3.1c1.9,0,2.9,1.2,3.1,3.1
	C365,234.8,364,236,362.1,236z M225.9,128.9c-1.9,0-3.1-1.1-3.1-3c0-1.9,1.1-3.1,3-3.1c1.9,0,2.9,1.2,3.2,3
	C228.8,127.7,227.8,128.8,225.9,128.9z M515.7,166.6c-1.9,0-3.3-1.2-3.3-3.3c0-1.9,1.3-3,3.1-3.1c1.9,0,2.8,1.3,3.2,3.1
	C518.3,165,517.7,166.6,515.7,166.6z M340.5,234.2c0.1,2-1,3.1-2.9,3.2c-1.9,0-3.1-1-3.2-3c-0.1-2,1.3-2.9,2.7-3.3
	C339.2,231.3,340.4,232.2,340.5,234.2z M471.2,217.6c-1.9-0.1-3-1.4-2.9-3.3c0.1-1.9,1.3-3,3.2-3c2,0.1,2.8,1.4,3,3.2
	C474.1,216.5,473.1,217.7,471.2,217.6z M150.6,126.3c0-2,1.2-3.1,3.1-3.1c1.9,0,3,1.3,3.1,3.2c0,1.9-1.2,3-3.1,3.1
	C151.7,129.2,150.6,128.2,150.6,126.3z M312.6,238.1c-1.9-0.1-3-1.3-2.9-3.3c0.1-1.9,1.3-3.1,3.2-2.9c1.9,0.1,2.9,1.3,2.9,3.4
	C315.6,237.2,314.5,238.2,312.6,238.1z M325.1,237.9c-1.8,0-3.1-1.3-3.1-3.1c0-2,1.3-3.3,3.3-3.2c1.8,0.1,2.8,1.4,3,3.3
	C328,236.7,327,237.9,325.1,237.9z M284.8,245.7c0-1.9,1.1-3.1,3-3.1c1.8,0,3.1,1.1,3.1,3c0,1.9-1.1,3-3,3.2
	C286,248.6,284.9,247.6,284.8,245.7z M346.7,233.9c-0.1-2,1.1-3.4,3.1-3.4c1.8,0,3,1.3,3.1,3.1c0.1,1.9-1.1,2.9-2.9,3.2
	C348,236.8,346.8,235.7,346.7,233.9z M494.8,209.2c-1.9,0.1-3.1-1.1-3.2-3c-0.1-1.9,1.1-3.1,3-3.2c1.9-0.1,2.9,1.1,3.2,3.1
	C497.6,207.9,496.7,209.2,494.8,209.2z M397.9,242.9c-1.9,0-3.1-1.1-3.1-3c0-1.9,1.1-3.1,3-3.2c1.9-0.1,2.9,1.1,3.1,3
	C400.8,241.7,399.8,242.9,397.9,242.9z M523.9,175.7c-2,0.1-3.3-1.2-3.2-3.3c0.1-1.9,1.3-3,3.1-3c1.9,0,2.7,1.4,3.1,3.1
	C526.7,174.4,525.6,175.7,523.9,175.7z M502.7,200.8c-0.1-2,1.2-3.1,3-3.2c1.9-0.1,3,1.2,3.1,3c0.1,1.9-1.1,3-2.8,3.2
	C504,203.6,502.7,202.7,502.7,200.8z M407,238.2c-0.1-1.9,1-3.1,3-3.2c1.9,0,3.1,1.1,3.1,3c0.1,1.9-1.1,3-3,3.2
	C408.3,241.1,407.1,240.1,407,238.2z M373.7,245.6c-1.8,0.1-3.1-1-3.3-2.9c-0.1-2.1,1.1-3.4,3.1-3.4c1.9-0.1,2.8,1.3,3.2,3
	C376.4,244,375.6,245.5,373.7,245.6z M364.4,243.4c0,1.9-1.1,3.1-3,3.1c-1.9,0-3-1.1-3-3c0-2,1.2-2.9,3-3.2
	C363.1,240.5,364.3,241.5,364.4,243.4z M253.7,113.4c0,1.9-1.1,3.1-3,3.2c-1.9,0.1-3.1-1.1-3.1-3c-0.1-1.9,1-3,3-3.2
	C252.5,110.5,253.7,111.5,253.7,113.4z M524.1,187.6c-1.9,0-3-1.3-3-3.1c0-1.9,1.2-3.1,3.1-3.1c1.9,0,2.9,1.3,3.1,3.2
	C527,186.4,526,187.6,524.1,187.6z M266.4,245c0,2-1.2,3.1-3.1,3c-1.9,0-3-1.2-3-3.2c0-2,1.3-2.9,3.1-3.1
	C265.2,242,266.4,242.9,266.4,245z M516,197c-1.8,0-3-1.2-3-3.1c0.1-1.9,1.2-3.1,3.1-3.1c1.9,0,2.8,1.3,3,3
	C519,195.8,517.9,197,516,197z M486.2,210.5c0.1,1.9-1.1,3.1-2.9,3.2c-1.9,0.1-3.1-1-3.2-3c-0.1-1.9,1.1-3,2.8-3.3
	C484.9,207.6,486.1,208.6,486.2,210.5z M303.2,245.6c0.1,1.9-1,3.2-2.9,3.2c-1.8,0.1-3.1-1-3.1-3c-0.1-1.9,1-3,2.9-3.3
	C301.9,242.7,303.1,243.7,303.2,245.6z M217,116.4c0,1.9-1.2,3-3,3.1c-2,0.1-3-1.1-3-3c0-1.9,1.2-2.9,3-3.2
	C215.8,113.5,217.1,114.4,217,116.4z M385.4,119.5c-1.9,0.1-3-1-3.1-3c-0.1-2,1-3.1,2.9-3.2c1.9-0.1,2.9,1.1,3.2,3
	C388.2,118.2,387.3,119.5,385.4,119.5z M503.9,147.9c-1.9-0.1-3-1.2-2.9-3.2c0.1-2,1.3-3,3.1-3c1.9,0,2.9,1.2,3,3.2
	C506.9,146.8,505.8,148,503.9,147.9z M484.7,222.1c-0.2,1.9-1.3,3-3.2,2.9c-1.9-0.1-2.9-1.5-2.8-3.3c0.1-1.9,1.4-2.8,3.2-3
	C483.7,219.1,484.8,220.1,484.7,222.1z M525.1,160.8c-1.9,0.1-3.1-1.1-3.1-3c-0.1-1.9,1-3.2,2.9-3.2c1.9-0.1,2.9,1.1,3.2,3.1
	C528,159.6,526.9,160.7,525.1,160.8z M185.7,189.8c5.5-1.1,11.2-2.1,15.7-5.6c6.3-4.9,5.7-6.5,0.1-10.6c-1.5-1.1-3.2-2-5-2.6
	c-12.4-4.7-25.3-5.2-38.3-3.9c-1.9,0.2-3.6,1.3-5.7,1.4c-6.5,0.2-12.5,2.5-17.7,6.5c-2.8,2.1-2.7,5.3-0.1,7.7c2.3,2.1,5,3.3,7.8,4.4
	c8.5,3.1,17.4,4.1,25.7,4.3C174.6,191.3,180.2,190.9,185.7,189.8z M465.1,182.8c2.1-2,2.8-4.1,0.7-6.8c-2-2.6-4.7-3.6-7.3-5
	c-6.8-3.4-14.4-3.1-21.6-4.2c-9.7-1.5-19.4,0.1-28.8,2.5c-4.5,1.2-8.8,2.9-12.2,6.3c-1.3,1.3-2.8,3-1.2,4.6c2.1,2.1,3.9,4.6,7,5.9
	c12.3,5,25.1,5.8,38.1,4.7c2.6-0.2,5-1.8,7.8-1.5C451.8,189.6,461.8,185.9,465.1,182.8z"/>
</svg>
